<svg color="#A4ABC1" xmlns="http://www.w3.org/2000/svg" focusable="false" aria-hidden="true" viewBox="0 0 24 24" width="24" height="24" fill="currentColor">
  <path fill-rule="evenodd" clip-rule="evenodd" d="M2.17451 2.17529L18.3089 2.17529L18.3089 5.41878L18.3091 5.41878L18.3091 2.175L2.17451 2.175L2.17451 2.17529ZM5.4181 18.3096L5.4183 18.3096L5.4183 16.2377L4.24641 16.2377L4.24641 4.24719L4.24621 4.24719L4.24621 16.238L5.4181 16.238L5.4181 18.3096ZM16.1872 5.46878L16.1872 4.2969L4.29641 4.2969L4.29641 16.1877L5.4683 16.1877L5.4683 18.3596L2.12451 18.3596L2.12451 2.125L18.3591 2.125L18.3591 5.46878L16.1872 5.46878ZM21.876 6.14268L6.14372 6.14268L6.14372 21.875L21.876 21.875L21.876 6.14268ZM19.7428 19.7417L19.7428 8.27595L8.27698 8.27595L8.27698 19.7417L19.7428 19.7417ZM21.826 21.825L21.826 6.19268L6.19372 6.19269L6.19372 6.19298L21.8258 6.19298L21.8258 21.825L21.826 21.825ZM8.22698 8.22624L8.22679 8.22624L8.22679 19.792L19.7926 19.792L19.7926 19.7917L8.22698 19.7917L8.22698 8.22624Z">
  </path>
</svg>