<?xml version="1.0" encoding="UTF-8"?>
<svg width="150px" height="30px" viewBox="0 0 150 30" version="1.1" xmlns="http://www.w3.org/2000/svg" xmlns:xlink="http://www.w3.org/1999/xlink">
    <!-- Generator: Sketch 63.1 (92452) - https://sketch.com -->
    <title>logo@3x</title>
    <desc>Created with Sketch.</desc>
    <g id="首页-深" stroke="none" stroke-width="1" fill="none" fill-rule="evenodd">
        <g id="首页-1" transform="translate(-40.000000, -25.000000)" fill-rule="nonzero">
            <g id="头">
                <g id="logo" transform="translate(40.000000, 25.000000)">
                    <g id="DeGate-logo">
                        <path d="M43.1052632,29.9157895 C40.0359394,29.9049379 37.1174058,28.5835546 35.0842105,26.2842105 C33.0785995,24.0666072 31.9927396,21.1684717 32.0473684,18.1789474 C32.0473684,11.5105263 36.7315789,6.53157895 42.8947368,6.53157895 C49.0578947,6.53157895 53.6157895,11.4263158 53.6157895,18.1789474 C53.6130361,18.8345033 53.3485135,19.4617956 52.8810248,19.9213775 C52.4135361,20.3809593 51.7818233,20.6347442 51.1263158,20.6263158 L37.3210526,20.6263158 C38.0710699,23.2065497 40.4236176,24.9902086 43.1105263,25.0157895 C45.2631579,25.0157895 46.9947368,24.4263158 47.9631579,22.6526316 C48.3845872,21.8363628 49.2252375,21.3224382 50.1438716,21.3194702 C51.0625057,21.3165023 51.9064592,21.8249843 52.3331541,22.6385129 C52.759849,23.4520416 52.6983744,24.4354196 52.1736842,25.1894737 C50.2789474,28.6052632 47,29.9157895 43.1052632,29.9157895 Z M37.2789474,15.7052632 L48.3789474,15.7052632 C47.7595192,13.1851344 45.4897869,11.4207551 42.8947368,11.4421053 C40.2780466,11.426085 37.9759025,13.1672568 37.2789474,15.6894737 L37.2789474,15.7052632 Z" id="形状" fill="#2196F3"></path>
                        <path d="M110.868421,16.1263158 L110.868421,27.4684211 C110.844148,28.707452 109.903106,29.7355204 108.671047,29.8690046 C107.438989,30.0024887 106.2996,29.1998191 106.010526,27.9947368 C104.183283,29.2440176 102.018716,29.90679 99.8052632,29.8947368 C96.7542561,29.9300736 93.8349849,28.6534914 91.7894737,26.3894737 C87.7328109,21.7313382 87.7328109,14.7949776 91.7894737,10.1368421 C93.8355309,7.87420724 96.7549401,6.59948166 99.8052632,6.63684211 C102.018157,6.6232393 104.182677,7.28416121 106.010526,8.53157895 C108.884211,10.4105263 110.868421,14.0157895 110.868421,16.1263158 Z M105.947368,18.3052632 C105.947368,14.3789474 103.315789,11.5526316 99.7842105,11.5526316 C96.2526316,11.5526316 93.6210526,14.3789474 93.6210526,18.3052632 C93.6210526,22.2315789 96.2,25.0157895 99.7842105,25.0157895 C103.368421,25.0157895 105.947368,22.1894737 105.947368,18.3052632 Z" id="形状" fill="#FFFFFF"></path>
                        <path d="M126.278947,27.7631579 C125.082629,29.1279605 123.357002,29.9121622 121.542105,29.9157895 C118.115389,29.9041845 115.344447,27.1214716 115.347368,23.6947368 L115.347368,11.5368421 C114.057933,11.4522321 113.055328,10.3816825 113.055328,9.08947368 C113.055328,7.79726483 114.057933,6.72671525 115.347368,6.64210526 L115.347368,3.93684211 C115.347368,2.5735708 116.452518,1.46842105 117.815789,1.46842105 C119.179061,1.46842105 120.284211,2.5735708 120.284211,3.93684211 L120.284211,6.64210526 L123.410526,6.64210526 C124.762171,6.64210526 125.857895,7.73782943 125.857895,9.08947368 C125.857895,10.4411179 124.762171,11.5368421 123.410526,11.5368421 L120.284211,11.5368421 L120.284211,23.6947368 C120.277163,24.0366532 120.407346,24.3671498 120.645682,24.612409 C120.884019,24.8576683 121.210654,24.9972579 121.552632,25 C121.929104,25.0010455 122.285558,24.8305678 122.521053,24.5368421 C123.412457,23.5204382 124.954738,23.4079313 125.984211,24.2842105 C126.496104,24.6989708 126.816859,25.3044342 126.872476,25.9609153 C126.928094,26.6173964 126.713768,27.2681919 126.278947,27.7631579 L126.278947,27.7631579 Z" id="路径" fill="#FFFFFF"></path>
                        <path d="M138.684211,29.9157895 C135.614887,29.9049379 132.696353,28.5835546 130.663158,26.2842105 C128.655637,24.06741 127.567861,21.1691843 127.621053,18.1789474 C127.621053,11.5105263 132.310526,6.53157895 138.468421,6.53157895 C144.626316,6.53157895 149.194737,11.4263158 149.194737,18.1789474 C149.191999,18.8354285 148.926754,19.4635332 148.45812,19.923269 C147.989486,20.3830049 147.356413,20.6361618 146.7,20.6263158 L132.9,20.6263158 C133.648517,23.2075812 136.001977,24.9919316 138.689474,25.0157895 C140.842105,25.0157895 142.568421,24.4263158 143.542105,22.6526316 C144.283256,21.5874931 145.723646,21.2800167 146.83512,21.9496801 C147.946595,22.6193434 148.347921,24.0364539 147.752632,25.1894737 C145.857895,28.6052632 142.563158,29.9157895 138.684211,29.9157895 Z M132.857895,15.7052632 L143.957895,15.7052632 C143.338015,13.1832064 141.06543,11.4183031 138.468421,11.4421053 C135.853682,11.4284704 133.55434,13.1691539 132.857895,15.6894737 L132.857895,15.7052632 Z" id="形状" fill="#FFFFFF"></path>
                        <path d="M14.9578947,0.0105096017 L2.99473684,0.0105096017 C2.09986545,0.00752942291 1.25122454,0.407685845 0.684210526,1.1 C0.621052632,1.17368421 0.568421053,1.24736842 0.510526316,1.32631579 C-0.0865930617,2.21544721 -0.163423978,3.35577721 0.309027745,4.31697209 C0.781479468,5.27816697 1.73128115,5.91388095 2.8,5.98421053 L2.83157895,6.01578947 L14.8947368,6.01578947 C19.8302332,6.03024197 23.8276528,10.0276616 23.8421053,14.9631579 L23.8421053,14.9631579 C23.8247816,19.8974595 19.8290385,23.8932027 14.8947368,23.9105263 L7.23157895,23.9105263 C6.55315896,23.9021573 6.00361603,23.3572716 5.98947368,22.6789474 L5.98947368,22.6789474 L5.98947368,23.9105263 L5.98947368,23.9105263 L5.98947368,17.9473684 L15.1157895,17.9473684 C16.7195043,17.8800929 17.985008,16.5603885 17.985008,14.9552632 C17.985008,13.3501378 16.7195043,12.0304335 15.1157895,11.9631579 L2.91052632,11.9631579 C1.3054846,11.9689315 0.00577358732,13.2686425 0,14.8736842 L0,27.0052632 C0.00577358732,28.6103049 1.3054846,29.9100159 2.91052632,29.9157895 L14.9578947,29.9157895 C23.2093123,29.8926599 29.8926599,23.2093123 29.9157895,14.9578947 L29.9157895,14.9578947 C29.8868837,6.71058822 23.2052196,0.0336261368 14.9578947,0.0105096017 Z" id="路径" fill="#2196F3"></path>
                        <path d="M5.98421053,19.1789474 L5.98421053,19.1789474 C5.99566082,18.4974166 6.54995763,17.9501362 7.23157895,17.9473684 L5.97894737,17.9473684 L5.98421053,19.1789474 Z" id="路径" fill="#2196F3"></path>
                        <path d="M70.6842105,0.0105096017 L82.6473684,0.0105096017 C83.5422398,0.00752942291 84.3908807,0.407685845 84.9578947,1.1 C85.0210526,1.17368421 85.0736842,1.24736842 85.1315789,1.32631579 C85.7286983,2.21544721 85.8055292,3.35577721 85.3330775,4.31697209 C84.8606258,5.27816697 83.9108241,5.91388095 82.8421053,5.98421053 L82.8105263,6.01578947 L70.7368421,6.01578947 C65.8013458,6.03024197 61.8039262,10.0276616 61.7894737,14.9631579 L61.7894737,14.9631579 C61.8067973,19.8974595 65.8025405,23.8932027 70.7368421,23.9105263 L78.4052632,23.9105263 C79.0836831,23.9021573 79.6332261,23.3572716 79.6473684,22.6789474 L79.6473684,22.6789474 L79.6473684,23.9105263 L79.6473684,23.9105263 L79.6473684,17.9473684 L70.5263158,17.9473684 C68.9226009,17.8800929 67.6570973,16.5603885 67.6570973,14.9552632 C67.6570973,13.3501378 68.9226009,12.0304335 70.5263158,11.9631579 L82.7263158,11.9631579 C84.3313575,11.9689315 85.6310685,13.2686425 85.6368421,14.8736842 L85.6368421,27.0052632 C85.6310685,28.6103049 84.3313575,29.9100159 82.7263158,29.9157895 L70.6842105,29.9157895 C62.4327929,29.8926599 55.7494453,23.2093123 55.7263158,14.9578947 L55.7263158,14.9578947 C55.7552215,6.71058822 62.4368857,0.0336261368 70.6842105,0.0105096017 L70.6842105,0.0105096017 Z" id="路径" fill="#FFFFFF"></path>
                        <path d="M79.6315789,19.1789474 L79.6315789,19.1789474 C79.6201287,18.4974166 79.0658318,17.9501362 78.3842105,17.9473684 L79.6315789,17.9473684 L79.6315789,19.1789474 Z" id="路径" fill="#FFFFFF"></path>
                    </g>
                </g>
            </g>
        </g>
    </g>
</svg>