<svg xmlns="http://www.w3.org/2000/svg" focusable="false" aria-hidden="true" viewBox="0 0 24 24" width="24" height="24" fill="none"><path fill-rule="evenodd" clip-rule="evenodd" d="M15.3201 17.7344C14.0741 18.5354 12.5913 19 11 19C6.58172 19 3 15.4183 3 11C3 6.58172 6.58172 3 11 3C15.4183 3 19 6.58172 19 11C19 13.1038 18.1879 15.018 16.8601 16.4461L20.6567 20.2426L19.2425 21.6569L15.3201 17.7344ZM17 11C17 14.3137 14.3137 17 11 17C7.68629 17 5 14.3137 5 11C5 7.68629 7.68629 5 11 5C14.3137 5 17 7.68629 17 11Z"></path></svg>